<?xml version="1.0" encoding="utf-8"?>

<!DOCTYPE svg PUBLIC "-//W3C//DTD SVG 1.1//EN" "http://www.w3.org/Graphics/SVG/1.1/DTD/svg11.dtd">
<!-- Uploaded to: SVG Repo, www.svgrepo.com, Generator: SVG Repo Mixer Tools -->
<svg height="50px" width="50px" version="1.1" id="_x32_" xmlns="http://www.w3.org/2000/svg" xmlns:xlink="http://www.w3.org/1999/xlink" 
	 viewBox="0 0 512 512"  xml:space="preserve">
<style type="text/css">
	.st0{fill:#ffffff;}
</style>
<g>
	<polygon class="st0" points="223.959,97.177 255.541,78.498 287.111,97.177 279.104,61.374 306.633,37.117 270.105,33.671 
		255.541,0 240.977,33.671 204.449,37.117 231.966,61.374 	"/>
	<path class="st0" d="M213.782,267.949c-10.92,0-19.776,8.856-19.776,19.782c0,10.92,8.856,19.776,19.776,19.776
		c10.926,0,19.783-8.856,19.783-19.776C233.565,276.805,224.709,267.949,213.782,267.949z M207.492,288.624
		c-3.973,0-7.189-3.216-7.189-7.189c0-3.972,3.216-7.189,7.189-7.189c3.973,0,7.189,3.217,7.189,7.189
		C214.681,285.407,211.465,288.624,207.492,288.624z"/>
	<path class="st0" d="M320.925,395.611c0,10.92,8.857,19.777,19.777,19.777c10.926,0,19.782-8.857,19.782-19.777
		c0-10.932-8.856-19.782-19.782-19.782C329.781,375.829,320.925,384.679,320.925,395.611z M334.405,396.497
		c-3.966,0-7.189-3.21-7.189-7.182c0-3.973,3.223-7.196,7.189-7.196c3.978,0,7.201,3.223,7.201,7.196
		C341.605,393.287,338.383,396.497,334.405,396.497z"/>
	<path class="st0" d="M285.122,218.982c0-8.447-6.842-15.289-15.289-15.289c-8.441,0-15.283,6.842-15.283,15.289
		c0,8.441,6.842,15.283,15.283,15.283C278.28,234.266,285.122,227.424,285.122,218.982z M264.968,219.67
		c-3.062,0-5.553-2.485-5.553-5.553c0-3.068,2.491-5.56,5.553-5.56c3.074,0,5.565,2.492,5.565,5.56
		C270.533,217.185,268.041,219.67,264.968,219.67z"/>
	<path class="st0" d="M159.839,387.003c-9.426,0-17.08,7.648-17.08,17.08s7.654,17.08,17.08,17.08c9.427,0,17.08-7.648,17.08-17.08
		S169.266,387.003,159.839,387.003z M154.405,404.858c-3.434,0-6.21-2.777-6.21-6.204c0-3.433,2.776-6.216,6.21-6.216
		c3.433,0,6.216,2.783,6.216,6.216C160.621,402.081,157.838,404.858,154.405,404.858z"/>
	<path class="st0" d="M249.741,374.162c-8.937,0-16.176,7.239-16.176,16.176c0,8.936,7.238,16.175,16.176,16.175
		c8.937,0,16.175-7.239,16.175-16.175C265.916,381.4,258.677,374.162,249.741,374.162z M244.59,391.068
		c-3.248,0-5.876-2.627-5.876-5.875c0-3.254,2.628-5.888,5.876-5.888c3.254,0,5.888,2.634,5.888,5.888
		C250.478,388.441,247.844,391.068,244.59,391.068z"/>
	<path class="st0" d="M464.267,406.172c-0.434-5.528-3.917-10.331-9.024-12.469c-32.766-13.666-63.71-35.32-85.432-53.299
		c12.841-3.018,27.102-7.765,39.776-15.178c4.505-2.652,7.276-7.492,7.276-12.711l-0.012-0.601
		c-0.224-5.466-3.44-10.332-8.336-12.692c-15.332-7.381-31.074-19.485-44.61-31.856c-8.379-7.647-15.933-15.388-22.168-22.156
		c8.906-2.163,19.169-5.732,30.164-11.639c4.815-2.584,7.778-7.592,7.778-13.002l-0.031-0.917v-0.025
		c-0.372-5.752-4.06-10.765-9.452-12.835c-12.116-4.617-24.728-12.506-36.664-21.84c-35.914-27.988-65.427-68.618-65.544-68.842
		l0.012,0.019c-2.776-3.874-7.238-6.16-11.992-6.16c-4.754,0-9.228,2.293-11.999,6.179l0.038-0.062
		c-0.148,0.211-13.194,18.258-32.612,38.623c-9.699,10.17-20.984,20.904-32.933,30.232c-11.937,9.333-24.561,17.229-36.69,21.852
		l-0.025,0.006c-5.373,2.064-9.06,7.077-9.432,12.829l-0.031,0.942c0,5.41,2.969,10.418,7.784,13.009
		c10.994,5.9,21.263,9.47,30.169,11.632c-6.241,6.768-13.796,14.509-22.175,22.156c-13.542,12.371-29.277,24.474-44.61,31.856
		c-4.89,2.361-8.112,7.226-8.33,12.692v-0.025l-0.012,0.626c0,5.224,2.77,10.059,7.264,12.704l0.012,0.006
		c12.668,7.412,26.928,12.159,39.769,15.178c-21.734,17.985-52.691,39.646-85.438,53.299c-5.107,2.138-8.59,6.941-9.024,12.463
		l-0.043,1.153c0,5.1,2.646,9.854,6.996,12.55l0.018,0.013c10.368,6.376,23.446,12.128,38.474,17.334
		c30.814,10.635,69.889,18.89,109.144,23.054l10.982,47.516c0.57,2.473,2.622,4.214,4.983,4.214h75.417
		c2.355,0,4.412-1.742,4.982-4.214l10.976-47.541c20.142-2.144,40.234-5.329,59.18-9.383c17.998-3.849,34.96-8.453,49.977-13.647
		c15.029-5.206,28.106-10.958,38.474-17.334l0.006-0.006c4.369-2.702,7.009-7.456,7.009-12.556L464.267,406.172z M147.835,222.49
		l-0.024,0.006c0.006,0,0.012-0.006,0.024-0.012V222.49z M413.329,421.318c-42.713,14.806-104.366,25.15-157.323,25.118
		c-35.32,0.006-74.482-4.555-109.33-12.016c-17.421-3.731-33.776-8.181-48.005-13.102c-12.488-4.307-23.198-9.005-31.62-13.764
		c41.201-18.022,77.859-46.332,99.445-65.966c2.417-2.206,3.334-5.59,2.361-8.713c-0.966-3.124-3.65-5.392-6.891-5.838
		c-13.356-1.785-32.406-6.378-47.646-14.49c16.343-8.515,31.781-20.607,45.118-32.76c14.279-13.033,26.098-26.11,33.553-34.83
		c2.033-2.386,2.578-5.702,1.4-8.614c-1.178-2.907-3.874-4.921-6.997-5.218c-8.639-0.824-21.152-3.402-35.487-10.436
		c12.903-5.528,25.348-13.443,36.943-22.491c19.225-15.016,36.212-32.852,48.551-47.057c9.148-10.542,15.717-19.083,18.605-22.944
		c4.214,5.622,16.107,21.01,32.425,38.128c10.115,10.61,21.933,21.877,34.75,31.886c11.59,9.048,24.015,16.956,36.906,22.484
		c-14.329,7.034-26.835,9.606-35.468,10.431c-3.124,0.298-5.82,2.305-6.997,5.218c-1.177,2.912-0.638,6.228,1.4,8.614
		c7.45,8.72,19.268,21.797,33.548,34.83c13.336,12.153,28.775,24.251,45.118,32.76c-15.233,8.112-34.284,12.698-47.647,14.49
		c-3.241,0.446-5.925,2.714-6.898,5.838c-0.966,3.124-0.05,6.507,2.368,8.713c21.574,19.621,58.219,47.932,99.439,65.966
		C436.527,412.313,425.818,417.011,413.329,421.318z"/>
	<path class="st0" d="M293.105,299.209c-9.433,0-17.08,7.648-17.08,17.08c0,9.432,7.647,17.08,17.08,17.08
		c9.432,0,17.08-7.648,17.08-17.08C310.185,306.857,302.537,299.209,293.105,299.209z M287.669,317.064
		c-3.433,0-6.204-2.776-6.204-6.204c0-3.433,2.77-6.216,6.204-6.216s6.21,2.782,6.21,6.216
		C293.879,314.288,291.102,317.064,287.669,317.064z"/>
</g>
</svg>