<?xml version="1.0" ?>

<!-- Uploaded to: SVG Repo, www.svgrepo.com, Generator: SVG Repo Mixer Tools -->
<svg fill="#ffffff" width="50px" height="50px" viewBox="0 0 512 512" xmlns="http://www.w3.org/2000/svg">

<title/>

<g id="garbage_recycle">

<path d="M470.27,97.9,453,85.41A7,7,0,0,0,443.23,87l-13,18L380.54,69a10.13,10.13,0,0,0-14.14,2.26L356,85.57l-.35-.25a10.14,10.14,0,0,0-14.78,3.27l-9.3,16.66a10.13,10.13,0,0,0,2.9,13.14l1.37,1-13,21L323,21.72A13.55,13.55,0,0,0,309.48,8.16l-22.4,0h0a13.54,13.54,0,0,0-13.53,13.54l0,39.2-32.43,0,0-39.2A13.55,13.55,0,0,0,227.6,8.09l-22.41,0h0a13.54,13.54,0,0,0-13.52,13.54l-.12,125.78-4.69-4.68a42.59,42.59,0,0,0-23.91-12.07l-40-6L114.36,116l3.39-3.39a7,7,0,0,0,0-9.9l-12.4-12.4a14,14,0,0,0-9.93-4.11h0a13.92,13.92,0,0,0-9.93,4.12l-27.39,27.4a14.06,14.06,0,0,0,0,19.87L70.49,150a7,7,0,0,0,5,2.05h0a7,7,0,0,0,5-2.05l2.88-2.89,9.42,9.41,5.41,38.74c0,.14.05.28.07.42h-15A14.19,14.19,0,0,0,69,209.89v24.49a14.19,14.19,0,0,0,14.18,14.18H99.74l32,232.25a21.8,21.8,0,0,0,21.52,18.76H359.52a21.8,21.8,0,0,0,21.53-18.82l31.3-232.19h16.47A14.19,14.19,0,0,0,443,234.38V209.89a14.19,14.19,0,0,0-14.18-14.18H405.6l13.52-16.05,2.88,2.08a10.11,10.11,0,0,0,13.39-1.34l12.93-14a10.13,10.13,0,0,0-1.52-15.06l-2.12-1.54,10.37-14.33a10.12,10.12,0,0,0-2.26-14.14l-11.23-8.13,8.91-12.31,11.59,8.39a7,7,0,0,0,8.21-11.34ZM241.06,74.85l32.44,0v8.85A5.22,5.22,0,0,1,272,87.45,5.15,5.15,0,0,1,268.29,89h0l-22,0a5.24,5.24,0,0,1-5.2-5.27Zm-35.4-52.78,21.45,0-.05,61.59A19.26,19.26,0,0,0,246.25,103l22,0h0a19.22,19.22,0,0,0,19.2-19.24l.05-61.6,21.45,0-.16,173.55H239.9l-34.37-34.34ZM78.32,132.29l0,0-2.84,2.85L68,127.66l27.46-27.41,7.46,7.45-8.48,8.48ZM96.88,141l-3.71-3.71,11.3-11.3,3.71,3.71,3.15,3.15L100,144.1ZM112,193.35l-5.08-36.3,18-18,36,5.44a28.62,28.62,0,0,1,16.1,8.12l43.14,43.1H112.41C112.23,194.93,112.08,194.14,112,193.35ZM367.18,478.88a7.75,7.75,0,0,1-7.66,6.69H153.23a7.74,7.74,0,0,1-7.65-6.67L113.87,248.56H398.22Zm61.82-269v24.49a.18.18,0,0,1-.18.18H83.18a.18.18,0,0,1-.18-.18V209.89a.18.18,0,0,1,.18-.18H428.82A.18.18,0,0,1,429,209.89Zm-41.7-14.18H322.83l0-28.64,24.38-39.46,60.52,43.81Zm40.12-27.33-81.93-59.31,5.5-9.85,84.07,60.86Zm5.92-26.83-15.09-10.93L367.36,93.78l8.1-11.19,66,47.77Z"/>

<path d="M164.85,390.43h8.25A86,86,0,0,0,180,406.86l-5.88,5.88a13.15,13.15,0,0,0,0,18.57l16.34,16.34a13.12,13.12,0,0,0,18.57,0l6-6a87.17,87.17,0,0,0,16.34,6.74v8.46A13.16,13.16,0,0,0,244.45,470h23.1a13.16,13.16,0,0,0,13.14-13.14v-8.46A87.17,87.17,0,0,0,297,441.69l6,6a13.13,13.13,0,0,0,18.58,0l16.34-16.34a13.15,13.15,0,0,0,0-18.57L332,406.86a86,86,0,0,0,6.87-16.43h8.25a13.14,13.14,0,0,0,13.13-13.13V354.19a13.14,13.14,0,0,0-13.13-13.13h-8.06a86.62,86.62,0,0,0-6.84-16.66l5.66-5.65a13.15,13.15,0,0,0,0-18.57l-16.34-16.34a13.13,13.13,0,0,0-18.58,0l-5.56,5.56a86.24,86.24,0,0,0-16.74-7V274.6a13.16,13.16,0,0,0-13.14-13.14h-23.1a13.16,13.16,0,0,0-13.14,13.14v7.84a86.24,86.24,0,0,0-16.74,7L209,283.84a13.13,13.13,0,0,0-18.58,0l-16.34,16.34a13.15,13.15,0,0,0,0,18.57l5.66,5.65a86.62,86.62,0,0,0-6.84,16.66h-8.06a13.14,13.14,0,0,0-13.13,13.13V377.3A13.14,13.14,0,0,0,164.85,390.43Zm.87-35.37h7.8a13.18,13.18,0,0,0,12.66-9.5,72.87,72.87,0,0,1,6.18-15.05A13.15,13.15,0,0,0,190.11,315l-5.5-5.5,15.11-15.11,5.41,5.41A13.14,13.14,0,0,0,220.74,302a72,72,0,0,1,15.09-6.29,13.24,13.24,0,0,0,9.48-12.7v-7.54h21.38V283a13.24,13.24,0,0,0,9.48,12.7A72,72,0,0,1,291.26,302a13.15,13.15,0,0,0,15.61-2.23l5.41-5.41,15.11,15.11-5.5,5.51a13.15,13.15,0,0,0-2.26,15.54,72.36,72.36,0,0,1,6.19,15.05,13.18,13.18,0,0,0,12.66,9.5h7.8v21.37h-8a13.21,13.21,0,0,0-12.64,9.41,72.66,72.66,0,0,1-6.21,14.85,13.13,13.13,0,0,0,2.22,15.61l5.72,5.73-15.11,15.11-5.81-5.81a13.14,13.14,0,0,0-15.55-2.26,72.21,72.21,0,0,1-14.81,6.11,13.14,13.14,0,0,0-9.42,12.6V456H245.31v-8.25a13.14,13.14,0,0,0-9.42-12.6,72.21,72.21,0,0,1-14.81-6.11,13.14,13.14,0,0,0-15.55,2.26l-5.81,5.81L184.61,422l5.72-5.72a13.13,13.13,0,0,0,2.22-15.61,72.66,72.66,0,0,1-6.21-14.85,13.21,13.21,0,0,0-12.64-9.41h-8Z"/>

<path d="M201.4,388c.23,0,.47,0,.71,0l6.85-.83a50.56,50.56,0,0,0,42.62,33.48,48.6,48.6,0,0,0,5,.25,50,50,0,0,0,44.57-27.19,7,7,0,0,0-12.43-6.43,36.3,36.3,0,0,1-65.35-1.83l7.32-.88a6,6,0,0,0,2.89-10.76L217.63,361.9a6,6,0,0,0-8.23,1l-12.63,15.34A6,6,0,0,0,201.4,388Z"/>

<path d="M213.65,345a7,7,0,0,0,9.58-2.47A36.3,36.3,0,0,1,288.45,348l-6.69.8a6,6,0,0,0-2.88,10.76l15.43,11.56a6,6,0,0,0,8.23-1l12.26-14.89a6,6,0,0,0-5.35-9.77l-6.8.82a50.29,50.29,0,0,0-91.48-11A7,7,0,0,0,213.65,345Z"/>

</g>

</svg>