<?xml version="1.0" encoding="UTF-8" standalone="no" ?>
<!DOCTYPE svg PUBLIC "-//W3C//DTD SVG 1.1//EN" "http://www.w3.org/Graphics/SVG/1.1/DTD/svg11.dtd">
<svg xmlns="http://www.w3.org/2000/svg" xmlns:xlink="http://www.w3.org/1999/xlink" version="1.1" width="480" height="480" viewBox="0 0 480 480" xml:space="preserve">
	<g transform="matrix(0.3 0 0 0.3 360.04 345.86)">
		<path style="stroke: none; stroke-width: 1; stroke-dasharray: none; stroke-linecap: butt; stroke-dashoffset: 0; stroke-linejoin: miter; stroke-miterlimit: 4; fill: rgb(0,0,0); fill-rule: nonzero; opacity: 1;" transform=" translate(-500, -500)" d="M 767 336 H 233 q -12 0 -21 9 t -9 21 l 38 505 q 1 13 12 21.5 t 30 8.5 h 434 q 18 0 29 -8.5 t 13 -21.5 l 38 -505 q 0 -12 -9 -21 t -21 -9 z M 344 841 q -10 0 -18 -9 t -8 -21 l -26 -386 q 0 -12 9 -20.5 t 21 -8.5 t 21 8.5 t 9 20.5 l 18 386 q 0 12 -7.5 21 t -18.5 9 z m 182 -31 q 0 13 -7.5 22 t -18.5 9 t -18.5 -9 t -7.5 -22 l -4 -385 q 0 -12 9 -20.5 t 21 -8.5 t 21 8.5 t 9 20.5 z m 156 1 q 0 12 -8 21 t -18 9 q -11 0 -18.5 -9 t -7.5 -21 l 18 -386 q 0 -12 9 -20.5 t 21 -8.5 t 21 8.5 t 9 20.5 z m 101 -605 l -179 -30 q -12 -2 -15 -15 l -8 -33 q -4 -20 -14 -26 q -6 -3 -22 -3 h -90 q -16 0 -23 3 q -10 6 -13 26 l -8 33 q -2 13 -15 15 l -179 30 q -19 3 -31.5 14.5 T 173 249 v 28 q 0 9 6.5 15 t 15.5 6 h 610 q 9 0 15.5 -6 t 6.5 -15 v -28 q 0 -17 -12.5 -28.5 T 783 206 z" stroke-linecap="round" />
	</g>
	<g transform="matrix(23.85 0 0 23.85 240.65 239.55)">
		<path style="stroke: rgb(0,0,0); stroke-width: 2; stroke-dasharray: none; stroke-linecap: round; stroke-dashoffset: 0; stroke-linejoin: miter; stroke-miterlimit: 4; fill: none; fill-rule: nonzero; opacity: 1;" transform=" translate(-12, -12)" d="M 20 10 V 7 C 20 5.89543 19.1046 5 18 5 H 6 C 4.89543 5 4 5.89543 4 7 V 10 M 20 10 H 4 M 20 10 V 10.75 M 4 10 V 19 C 4 20.1046 4.89543 21 6 21 H 12 M 8 3 V 7 M 16 3 V 7" stroke-linecap="round" />
	</g>
	<g transform="matrix(0.22 0 0 0.22 144.02 322.12)">
		<g transform="matrix(1.56 0 0 1.56 -0.15 -117.21)">
			<path style="stroke: none; stroke-width: 1; stroke-dasharray: none; stroke-linecap: butt; stroke-dashoffset: 0; stroke-linejoin: miter; stroke-miterlimit: 4; fill: rgb(0,0,0); fill-rule: nonzero; opacity: 1;" transform=" translate(-256, -181.27)" d="M 256 362.549 c 12.439 0 29.89 -54.93 34.382 -70.985 c 13.943 -46.482 25.398 -109.859 25.398 -162.266 C 315.78 66.761 298.338 0 256 0 c -42.338 0 -59.78 66.761 -59.78 129.298 c 0 52.407 11.472 115.784 25.415 162.266 C 226.11 307.619 243.551 362.549 256 362.549 z" stroke-linecap="round" />
		</g>
		<g transform="matrix(1.56 0 0 1.56 -0.13 313.47)">
			<path style="stroke: none; stroke-width: 1; stroke-dasharray: none; stroke-linecap: butt; stroke-dashoffset: 0; stroke-linejoin: miter; stroke-miterlimit: 4; fill: rgb(0,0,0); fill-rule: nonzero; opacity: 1;" transform=" translate(-256, -456.71)" d="M 256 401.424 c -30.391 0 -55.288 24.906 -55.288 55.288 C 200.712 487.086 225.609 512 256 512 c 30.392 0 55.297 -24.914 55.297 -55.288 C 311.297 426.33 286.391 401.424 256 401.424 z" stroke-linecap="round" />
		</g>
	</g>
</svg>