<svg xmlns="http://www.w3.org/2000/svg" xmlns:xlink="http://www.w3.org/1999/xlink" xmlns:sketch="http://www.bohemiancoding.com/sketch/ns" viewBox="0 0 19 27.5" version="1.1" x="0px" y="0px"><title>trash_delete</title><description>Created with Sketch (http://www.bohemiancoding.com/sketch)</description><g stroke="none" stroke-width="1" fill="none" fill-rule="evenodd" sketch:type="MSPage"><path d="M0.501203573,1 C0.501203573,1 7.17230047e-07,1 0,2 C-4.1525821e-07,3 0.501203573,3 0.501203573,3 L18.4987964,3 C18.4987964,3 19,3 19,2 C18.9999995,1 18.4987964,1 18.4987964,1 L0.501203573,1 L0.501203573,1 Z M0.973754885,4 L17.9737549,4 L15.9737549,22 L2.97375489,22 L0.973754885,4 Z M7.9737549,0 C6.9737549,0 6.9737549,1 6.9737549,1 L11.9737549,1 C11.9737549,1 11.9737549,0 10.9737549,0 L7.9737549,0 L7.9737549,0 Z M5.9737549,20 L6.9737549,20 L5.9737549,3.96289062 L4.97375489,3.96289062 L5.9737549,20 Z M12.9737549,3.96289062 L11.9737549,20 L12.9737549,20 L13.9737549,3.96289062 L12.9737549,3.96289062 L12.9737549,3.96289062 Z M8.9737549,3.96289062 L8.9737549,20 L9.9737549,20 L9.9737549,3.96289062 L8.9737549,3.96289062 L8.9737549,3.96289062 Z" fill="#000000" sketch:type="MSShapeGroup"/></g><text x="0" y="37" fill="#000000" font-size="5px" font-weight="bold" font-family="'Helvetica Neue', Helvetica, Arial-Unicode, Arial, Sans-serif">Created by Pham Thi Dieu Linh</text><text x="0" y="42" fill="#000000" font-size="5px" font-weight="bold" font-family="'Helvetica Neue', Helvetica, Arial-Unicode, Arial, Sans-serif">from the Noun Project</text></svg>