<?xml version="1.0" encoding="UTF-8" standalone="no" ?>
<!DOCTYPE svg PUBLIC "-//W3C//DTD SVG 1.1//EN" "http://www.w3.org/Graphics/SVG/1.1/DTD/svg11.dtd">
<svg xmlns="http://www.w3.org/2000/svg" xmlns:xlink="http://www.w3.org/1999/xlink" version="1.1" width="50" height="50" viewBox="0 0 480 480" xml:space="preserve">
	<g transform="matrix(0.32 0 0 0.32 385.5 338.5)">
		<g transform="matrix(1.73 0 0 1.73 0 0)">
			<path style="stroke: none; stroke-width: 1; stroke-dasharray: none; stroke-linecap: butt; stroke-dashoffset: 0; stroke-linejoin: miter; stroke-miterlimit: 4; fill: rgb(255,255,255); fill-rule: nonzero; opacity: 1;"  transform=" translate(-231.5, -231.5)" d="M 369.96 101.6 l -18.314 -61.048 C 356.17 36.266 359 30.209 359 23.5 C 359 10.542 348.458 0 335.5 0 h -208 C 114.542 0 104 10.542 104 23.5 c 0 6.709 2.83 12.766 7.354 17.051 L 93.04 101.6 C 89.695 112.746 88 124.299 88 135.938 v 287.856 c 0 1.873 0.246 3.742 0.73 5.555 l 4.495 16.78 c 2.661 9.933 12.023 16.87 22.767 16.87 h 231.016 c 10.743 0 20.105 -6.938 22.768 -16.871 l 4.491 -16.77 c 0.486 -1.814 0.733 -3.689 0.733 -5.571 v -287.85 C 375 124.299 373.305 112.746 369.96 101.6 z M 127.5 15 h 208 c 4.687 0 8.5 3.813 8.5 8.5 s -3.813 8.5 -8.5 8.5 h -208 c -4.687 0 -8.5 -3.813 -8.5 -8.5 S 122.813 15 127.5 15 z M 107.407 105.91 l 17.709 -59.031 C 125.9 46.959 126.695 47 127.5 47 h 208 c 0.805 0 1.6 -0.041 2.384 -0.12 l 17.709 59.031 c 2.925 9.747 4.407 19.85 4.407 30.028 V 416 H 103 v -43.518 c 8.024 1.671 16.234 2.518 24.5 2.518 c 65.893 0 119.5 -53.607 119.5 -119.5 S 193.393 136 127.5 136 c -8.269 0 -16.476 0.852 -24.5 2.523 v -2.585 C 103 125.76 104.482 115.657 107.407 105.91 z M 103 187.251 c 7.833 -2.816 16.054 -4.251 24.5 -4.251 c 39.977 0 72.5 32.523 72.5 72.5 S 167.477 328 127.5 328 c -8.441 0 -16.665 -1.427 -24.5 -4.242 V 187.251 z M 103 339.504 c 7.918 2.31 16.12 3.496 24.5 3.496 c 48.248 0 87.5 -39.252 87.5 -87.5 S 175.748 168 127.5 168 c -8.383 0 -16.584 1.19 -24.5 3.499 v -17.6 c 7.985 -1.917 16.204 -2.899 24.5 -2.899 c 57.621 0 104.5 46.879 104.5 104.5 S 185.121 360 127.5 360 c -8.293 0 -16.515 -0.975 -24.5 -2.891 V 339.504 z M 347.008 448 H 115.992 c -3.967 0 -7.37 -2.365 -8.277 -5.752 L 104.702 431 h 253.597 l -3.013 11.247 C 354.378 445.635 350.975 448 347.008 448 z" stroke-linecap="round" />
		</g>
		<g transform="matrix(1.73 0 0 1.73 156.53 -262.61)">
			<path style="stroke: none; stroke-width: 1; stroke-dasharray: none; stroke-linecap: butt; stroke-dashoffset: 0; stroke-linejoin: miter; stroke-miterlimit: 4; fill: rgb(255,255,255); fill-rule: nonzero; opacity: 1;"  transform=" translate(-322.09, -79.51)" d="M 317.315 89.681 c 0.975 3.249 3.954 5.347 7.181 5.347 c 0.714 0 1.439 -0.103 2.158 -0.318 c 3.967 -1.19 6.219 -5.371 5.028 -9.339 l -4.808 -16.025 c -1.19 -3.968 -5.371 -6.219 -9.339 -5.028 c -3.967 1.19 -6.219 5.371 -5.028 9.339 L 317.315 89.681 z" stroke-linecap="round" />
		</g>
		<g transform="matrix(1.73 0 0 1.73 178.22 -76.03)">
			<path style="stroke: none; stroke-width: 1; stroke-dasharray: none; stroke-linecap: butt; stroke-dashoffset: 0; stroke-linejoin: miter; stroke-miterlimit: 4; fill: rgb(255,255,255); fill-rule: nonzero; opacity: 1;"  transform=" translate(-334.65, -187.5)" d="M 326.452 121.038 c 1.027 4.888 1.548 9.901 1.548 14.9 V 255.5 c 0 4.143 3.357 7.5 7.5 7.5 s 7.5 -3.357 7.5 -7.5 V 135.938 c 0 -6.034 -0.629 -12.085 -1.868 -17.984 c -0.852 -4.054 -4.829 -6.648 -8.882 -5.798 C 328.196 113.008 325.601 116.984 326.452 121.038 z" stroke-linecap="round" />
		</g>
	</g>
	<g transform="matrix(0.68 0 0 0.68 282.5 183.6)">
		<path style="stroke: none; stroke-width: 1; stroke-dasharray: none; stroke-linecap: butt; stroke-dashoffset: 0; stroke-linejoin: miter; stroke-miterlimit: 4; fill: rgb(255,255,255); fill-rule: nonzero; opacity: 1;"  transform=" translate(-256, -256)" d="M 458.266 136.914 l -65.048 -36.854 V 59.676 c 0 -5.784 -4.051 -10.765 -9.713 -11.934 L 154.816 0.254 c -3.581 -0.742 -7.334 0.164 -10.173 2.478 c -2.833 2.307 -4.492 5.796 -4.492 9.457 v 42.697 l -89.337 96.211 c -2.09 2.247 -3.256 5.231 -3.256 8.294 v 272.033 c 0 5.448 3.614 10.232 8.855 11.731 l 240.554 68.38 c 3.22 0.92 6.677 0.466 9.559 -1.242 l 146.899 -87.273 c 2.79 -0.276 5.458 -1.466 7.446 -3.457 c 2.267 -2.267 3.571 -5.408 3.571 -8.616 V 147.521 C 464.443 143.132 462.087 139.083 458.266 136.914 z M 379.065 120.064 l 52.883 29.968 l -112.818 51.116 L 379.065 120.064 z M 368.84 69.592 v 28.811 L 164.529 55.976 V 27.172 L 368.84 69.592 z M 161.273 67.963 c 0.052 -0.053 0.088 -0.125 0.138 -0.177 l 208.122 43.216 c 0.108 0.322 0.256 0.625 0.391 0.934 l -72.138 97.578 l -219.64 -52.028 L 161.273 67.963 z M 71.938 168.538 l 222.266 52.653 v 264.213 L 71.938 422.216 V 168.538 z M 306.395 482.013 V 220.298 l 133.667 -60.56 v 242.861 L 306.395 482.013 z" stroke-linecap="round" />
	</g>
	<g transform="matrix(1.37 0 0 1.37 100.55 251.36)">
		<path style="stroke: none; stroke-width: 1; stroke-dasharray: none; stroke-linecap: butt; stroke-dashoffset: 0; stroke-linejoin: miter; stroke-miterlimit: 4; fill: rgb(255,255,255); fill-rule: nonzero; opacity: 1;"  transform=" translate(-153.55, -153.55)" d="M 213.746 93.01 l -33.494 -51.965 c 1.3 -1.101 2.128 -2.742 2.128 -4.579 V 6 c 0 -3.313 -2.687 -6 -6 -6 h -45.671 c -3.314 0 -6 2.687 -6 6 v 30.466 c 0 1.837 0.828 3.479 2.129 4.58 L 93.344 93.01 c -0.624 0.97 -0.956 2.098 -0.956 3.251 v 45.536 v 70.228 v 70.679 c 0 13.447 10.938 24.387 24.384 24.387 c 7.328 0 13.913 -3.25 18.387 -8.383 c 4.474 5.133 11.059 8.383 18.387 8.383 c 7.328 0 13.913 -3.25 18.387 -8.383 c 4.474 5.133 11.059 8.383 18.387 8.383 c 13.445 0 24.384 -10.94 24.384 -24.387 v -70.679 v -70.228 V 96.261 C 214.702 95.107 214.37 93.979 213.746 93.01 z M 136.708 12 h 33.671 v 18.466 h -0.217 h -33.234 h -0.22 V 12 z M 140.199 42.466 h 26.692 l 35.811 55.56 v 37.771 h -98.314 V 98.026 L 140.199 42.466 z M 202.702 206.024 h -98.314 v -58.228 h 98.314 V 206.024 z M 190.318 295.09 c -6.83 0 -12.387 -5.557 -12.387 -12.387 c 0 -3.314 -2.686 -6 -6 -6 c -3.313 0 -6 2.686 -6 6 c 0 6.83 -5.557 12.387 -12.387 12.387 c -6.83 0 -12.387 -5.557 -12.387 -12.387 c 0 -3.314 -2.687 -6 -6 -6 c -3.314 0 -6 2.686 -6 6 c 0 6.83 -5.557 12.387 -12.387 12.387 c -6.829 0 -12.384 -5.557 -12.384 -12.387 v -64.679 h 98.314 v 64.679 C 202.702 289.533 197.147 295.09 190.318 295.09 z" stroke-linecap="round" />
	</g>
</svg>