<?xml version="1.0" encoding="utf-8"?>

<!DOCTYPE svg PUBLIC "-//W3C//DTD SVG 1.1//EN" "http://www.w3.org/Graphics/SVG/1.1/DTD/svg11.dtd">
<!-- Uploaded to: SVG Repo, www.svgrepo.com, Generator: SVG Repo Mixer Tools -->
<svg height="50px" width="50px" version="1.1" id="_x32_" xmlns="http://www.w3.org/2000/svg" xmlns:xlink="http://www.w3.org/1999/xlink" 
	 viewBox="0 0 512 512"  xml:space="preserve">
<style type="text/css">
	.st0{fill:#ffffff;}
</style>
<g>
	<path class="st0" d="M433.89,440.042c-14.333-12.55-34.041-27.495-57.453-51.424c-57.16,38.891-133.734,79.211-230.93,109.152
		c32.18,7.674,71.785,14.23,110.494,14.23c79.952,0,163.899-27.986,177.888-35.979C447.896,468.018,446.844,451.369,433.89,440.042z
		 M370.942,466.529c-6.909,0-12.49-5.582-12.49-12.498c0-6.882,5.582-12.481,12.49-12.481c6.89,0,12.49,5.598,12.49,12.481
		C383.432,460.947,377.832,466.529,370.942,466.529z"/>
	<path class="st0" d="M154.052,246.159c4.049,3.239,7.219,5.978,9.234,8.631c62.259-18.338,104.776-44.084,133.424-68.004
		c8.355-6.994,15.504-13.825,21.638-20.285c-18.106-18.864-34.368-36.28-34.368-36.28c-9.992-7.994-15.987-17.986-27.977-17.986
		c-11.99,0-17.986,9.992-27.994,17.986c0,0-55.971,59.967-75.955,77.953C132.07,226.167,144.06,238.166,154.052,246.159z
		 M230.747,176.76c6.322,0,11.439,5.125,11.439,11.43c0,6.339-5.117,11.456-11.439,11.456s-11.439-5.116-11.439-11.456
		C219.308,181.884,224.424,176.76,230.747,176.76z"/>
	<path class="st0" d="M116.083,349.694c5.582,4.479,13.782,7.64,20.328,11.129c76.006-21.017,134.493-49.958,178.524-79.141
		c11.542-7.649,18.882-12.981,28.512-20.535c4.996-4.996,11.111-8.82,16.486-14.488c9.509-9.992,20.001-20.492,0-38.486
		c-6.753-6.082-17.641-16.968-29.08-28.718c-6.476,6.788-13.936,13.902-22.619,21.138c-32.49,27.167-81.347,55.971-152.856,75.076
		c-9.768,10.009-25.651,24.807-39.296,38.451C96.082,334.112,108.28,343.44,116.083,349.694z M287.976,247.244
		c7.684,0,13.919,6.227,13.919,13.894c0,7.691-6.236,13.919-13.919,13.919c-7.683,0-13.902-6.228-13.902-13.919
		C274.073,253.472,280.292,247.244,287.976,247.244z M199.032,281.871c10.078,0,18.26,8.183,18.26,18.243
		c0,10.095-8.183,18.26-18.26,18.26c-10.078,0-18.261-8.166-18.261-18.26C180.771,290.054,188.954,281.871,199.032,281.871z"/>
	<path class="st0" d="M365.325,374.398c6.615-4.316,19.226-14.411,30.596-23.498c7.803-6.254,19.983-16.788,0-36.78
		c-14.144-14.143-30.682-29.51-40.346-39.519c-2.154,1.671-4.272,3.351-6.512,5.03c-46.926,35.161-113.217,71.683-203.332,97.213
		c-0.5,1.017-1.137,2.085-1.998,3.23c-27.012,29.105-49.648,45.971-65.635,59.968c-12.938,11.327-13.989,27.976,0,35.979
		c4.634,2.644,16.952,7.485,34.213,12.765c91.803-25.254,165.932-60.14,223.573-95.386
		C346.238,387.06,356.022,380.712,365.325,374.398z M137.066,458.88c-8.2,0-14.832-6.632-14.832-14.841
		c0-8.175,6.632-14.824,14.832-14.824c8.2,0,14.833,6.65,14.833,14.824C151.899,452.248,145.266,458.88,137.066,458.88z
		 M238.016,433.547c-6.908,0-12.506-5.589-12.506-12.497c0-6.892,5.598-12.49,12.506-12.49c6.892,0,12.491,5.599,12.491,12.49
		C250.507,427.958,244.908,433.547,238.016,433.547z M303.98,390.574c-9.664,0-17.503-7.838-17.503-17.503
		c0-9.648,7.838-17.486,17.503-17.486c9.647,0,17.486,7.838,17.486,17.486C321.466,382.736,313.627,390.574,303.98,390.574z"/>
	<path class="st0" d="M223.495,65.257c0.913,0.895,1.326,2.17,1.102,3.436l-5.289,30.828c-0.241,1.456,0.362,2.929,1.55,3.79
		c1.189,0.862,2.774,0.982,4.083,0.293l27.684-14.557c1.119-0.586,2.464-0.586,3.6,0l27.684,14.557
		c1.309,0.689,2.876,0.569,4.083-0.293c1.188-0.861,1.792-2.334,1.533-3.79l-5.289-30.828c-0.207-1.266,0.206-2.541,1.119-3.436
		l22.396-21.827c1.051-1.034,1.43-2.568,0.982-3.971c-0.448-1.404-1.671-2.421-3.118-2.636l-30.958-4.488
		c-1.257-0.189-2.36-0.982-2.911-2.119L257.897,2.154C257.242,0.827,255.899,0,254.417,0c-1.464,0-2.808,0.827-3.463,2.154
		l-13.85,28.062c-0.551,1.137-1.654,1.93-2.912,2.119l-30.956,4.488c-1.448,0.216-2.671,1.232-3.118,2.636
		c-0.466,1.404-0.086,2.937,0.982,3.971L223.495,65.257z"/>
</g>
</svg>