<?xml version="1.0" encoding="iso-8859-1"?>
<!-- Uploaded to: SVG Repo, www.svgrepo.com, Generator: SVG Repo Mixer Tools -->
<svg height="50px" width="50px" version="1.1" id="Layer_1" xmlns="http://www.w3.org/2000/svg" xmlns:xlink="http://www.w3.org/1999/xlink" 
	 viewBox="0 0 512 512" xml:space="preserve">
<g>
	<path style="fill:#6B4425;" d="M224.975,126.109l13.365-33.421h52.974l-44.138-52.966l-61.793-8.828l-26.483,26.483l-26.483,17.655
		l-52.966-8.828L52.97,136.826h156.178C216.113,136.826,222.389,132.58,224.975,126.109"/>
	<path style="fill:#378CD5;" d="M506.605,219.17l-76.712-84.383c-3.928-4.317-9.498-6.788-15.342-6.788h-81.311
		c-8.527,0-15.448,6.921-15.448,15.448v196.414H26.482v75.767c0,6.912,5.597,12.509,12.509,12.509h13.974
		c0-29.246,23.711-52.966,52.966-52.966s52.966,23.72,52.966,52.966h158.897h44.138c0-29.246,23.711-52.966,52.966-52.966
		c29.255,0,52.966,23.72,52.966,52.966h31.629c6.912,0,12.509-5.597,12.509-12.509V233.127
		C511.999,227.963,510.075,222.993,506.605,219.17"/>
	<path style="fill:#FEC24B;" d="M256,339.864H26.483L0,225.105l35.31-88.276h173.833c6.974,0,13.241-4.246,15.828-10.717
		l13.374-33.421h52.965L256,339.864z"/>
	<path style="fill:#E0E0E0;" d="M368.275,269.243h143.722v-36.122c0-5.155-1.924-10.134-5.394-13.948l-50.776-55.861h-87.552
		c-3.505,0-6.347,2.842-6.347,6.347v93.237C361.928,266.401,364.771,269.243,368.275,269.243"/>
	<g>
		<path style="fill:#494949;" d="M467.862,428.14c0,29.255-23.711,52.966-52.966,52.966s-52.966-23.711-52.966-52.966
			c0-29.255,23.711-52.966,52.966-52.966S467.862,398.885,467.862,428.14"/>
		<path style="fill:#494949;" d="M158.897,428.14c0,29.255-23.711,52.966-52.966,52.966s-52.966-23.711-52.966-52.966
			c0-29.255,23.711-52.966,52.966-52.966S158.897,398.885,158.897,428.14"/>
	</g>
	<path style="fill:#83BEEB;" d="M459.034,339.864H512v-17.655h-52.966V339.864z"/>
	<g>
		<path style="fill:#A2A2A2;" d="M123.586,428.14c0,9.754-7.901,17.655-17.655,17.655s-17.655-7.901-17.655-17.655
			c0-9.754,7.901-17.655,17.655-17.655S123.586,418.385,123.586,428.14"/>
		<path style="fill:#A2A2A2;" d="M432.552,428.14c0,9.754-7.901,17.655-17.655,17.655s-17.655-7.901-17.655-17.655
			c0-9.754,7.901-17.655,17.655-17.655S432.552,418.385,432.552,428.14"/>
	</g>
	<path style="fill:#FEC24B;" d="M353.103,110.347h-70.621c-4.882,0-8.828-3.946-8.828-8.828c0-4.882,3.946-8.828,8.828-8.828h70.621
		c4.882,0,8.828,3.946,8.828,8.828C361.931,106.401,357.985,110.347,353.103,110.347"/>
	<g>
		<path style="fill:#D1942A;" d="M3.531,216.278h102.4c4.882,0,8.828-3.946,8.828-8.828s-3.946-8.828-8.828-8.828H10.593
			L3.531,216.278z"/>
		<path style="fill:#D1942A;" d="M8.149,260.416H150.07c4.882,0,8.828-3.946,8.828-8.828c0-4.882-3.946-8.828-8.828-8.828H4.07
			L8.149,260.416z"/>
	</g>
</g>
</svg>