<?xml version="1.0" encoding="utf-8"?><!-- Uploaded to: SVG Repo, www.svgrepo.com, Generator: SVG Repo Mixer Tools -->
<svg width="50px" height="50px" viewBox="0 0 24 24" fill="#fff" xmlns="http://www.w3.org/2000/svg">
<path d="M18.4508 8.2785L19.1984 8.21861L18.4508 8.2785ZM18.4651 8.46617L19.2136 8.41857L18.4651 8.46617ZM16.6137 12.8998L17.1092 13.4629V13.4629L16.6137 12.8998ZM16.7511 12.778L17.2562 13.3324V13.3324L16.7511 12.778ZM10.0702 8.95799L10.8094 9.08475L10.0702 8.95799ZM10.1026 8.77295L10.8397 8.91189L10.1026 8.77295ZM12.9874 4.98732L13.3182 5.66042V5.66042L12.9874 4.98732ZM12.8245 5.06824L13.1671 5.73542L12.8245 5.06824ZM7.73204 13.466L7.2062 12.9312L7.73204 13.466ZM8.39225 13.8678C8.68425 13.574 8.6828 13.0992 8.38901 12.8072C8.09522 12.5152 7.62035 12.5166 7.32835 12.8104L8.39225 13.8678ZM10.0385 9.13942L10.7763 9.27434L10.0385 9.13942ZM14.0411 17.2666L14.7726 17.4323L14.0411 17.2666ZM14.0823 17.0872L13.3527 16.9134L13.3517 16.9175L14.0823 17.0872ZM16.4789 13.0191L16.9809 13.5764L16.4789 13.0191ZM7.65135 20.4126L8.03836 19.7702H8.03835L7.65135 20.4126ZM5.46243 18.81L4.84069 19.2294L5.46243 18.81ZM6.9476 14.2373L7.47343 14.7721L6.9476 14.2373ZM5.17824 16.3162L4.47735 16.0492L5.17824 16.3162ZM8.31569 20.8128L7.92868 21.4552H7.92868L8.31569 20.8128ZM10.7404 21.9894L10.6702 22.7361L10.7404 21.9894ZM13.7931 18.361L13.0617 18.1953L13.7931 18.361ZM12.9523 20.9993L13.5501 21.4522L12.9523 20.9993ZM18.3395 2.89865L18.7265 2.25621L18.7265 2.25621L18.3395 2.89865ZM18.7506 3.20701L19.3826 2.80329L18.7506 3.20701ZM18.6267 3.97125L19.2829 4.33437H19.2829L18.6267 3.97125ZM18.8287 3.49875L18.0794 3.46486L18.8287 3.49875ZM16.446 2.7263L15.7898 2.36318V2.36318L16.446 2.7263ZM16.7589 2.27867L17.1718 2.90473L16.7589 2.27867ZM17.5588 2.42836L17.1718 3.07079L17.1718 3.07079L17.5588 2.42836ZM17.0641 2.19694L17.109 1.44829L17.0641 2.19694ZM9.13841 9.70112C9.02506 10.0995 9.25613 10.5144 9.65453 10.6277C10.0529 10.7411 10.4678 10.51 10.5812 10.1116L9.13841 9.70112ZM14.8973 15.0002L15.5512 15.3677L14.8973 15.0002ZM15.6325 4.13955L17.7846 5.43602L18.5586 4.15114L16.4065 2.85467L15.6325 4.13955ZM8.70269 20.1704L8.03836 19.7702L7.26434 21.055L7.92868 21.4552L8.70269 20.1704ZM13.3097 17.1008L13.0617 18.1953L14.5246 18.5268L14.7726 17.4323L13.3097 17.1008ZM7.47343 14.7721L8.25788 14.0007L7.2062 12.9312L6.42176 13.7025L7.47343 14.7721ZM13.3182 5.66042L16.3503 4.17021L15.6887 2.82401L12.6566 4.31422L13.3182 5.66042ZM17.424 4.85347L17.7032 8.33839L19.1984 8.21861L18.9192 4.73369L17.424 4.85347ZM16.6757 3.86023L17.1022 3.08942L15.7898 2.36318L15.3632 3.13399L16.6757 3.86023ZM17.1718 3.07079L17.9525 3.54109L18.7265 2.25621L17.9458 1.78592L17.1718 3.07079ZM17.9704 3.60813L17.5154 4.43046L18.8279 5.1567L19.2829 4.33437L17.9704 3.60813ZM17.7032 8.33839C17.711 8.43596 17.7142 8.47627 17.7166 8.51377L19.2136 8.41857C19.2102 8.36588 19.2058 8.31115 19.1984 8.21861L17.7032 8.33839ZM17.1092 13.4629C17.177 13.4032 17.2177 13.3675 17.2562 13.3324L16.2459 12.2236C16.2192 12.2479 16.1901 12.2736 16.1182 12.3368L17.1092 13.4629ZM17.7166 8.51377C17.8068 9.93182 17.2577 11.3018 16.2459 12.2236L17.2562 13.3324C18.614 12.0953 19.3318 10.2781 19.2136 8.41857L17.7166 8.51377ZM10.8094 9.08475C10.8259 8.98843 10.8327 8.94869 10.8397 8.91189L9.36562 8.634C9.35585 8.68583 9.3466 8.7399 9.33094 8.83122L10.8094 9.08475ZM12.6566 4.31422C12.5763 4.35367 12.528 4.37738 12.4819 4.40106L13.1671 5.73542C13.1987 5.71919 13.2331 5.70225 13.3182 5.66042L12.6566 4.31422ZM10.8397 8.91189C11.1019 7.5206 11.9683 6.35098 13.1671 5.73542L12.4819 4.40106C10.856 5.23595 9.71048 6.80474 9.36562 8.634L10.8397 8.91189ZM8.25788 14.0007C8.32135 13.9383 8.35726 13.903 8.39225 13.8678L7.32835 12.8104C7.30084 12.8381 7.27207 12.8664 7.2062 12.9312L8.25788 14.0007ZM9.33094 8.83122C9.31502 8.92409 9.30799 8.96501 9.30077 9.00451L10.7763 9.27434C10.7854 9.22482 10.794 9.17445 10.8094 9.08475L9.33094 8.83122ZM14.7726 17.4323C14.7825 17.3884 14.7926 17.3445 14.8002 17.3114C14.804 17.295 14.8072 17.2813 14.8094 17.2717C14.8105 17.2669 14.8114 17.2632 14.8119 17.2607C14.8122 17.2594 14.8124 17.2585 14.8126 17.2579C14.8127 17.2575 14.8127 17.2573 14.8128 17.2572C14.8128 17.2571 14.8128 17.257 14.8128 17.257C14.8128 17.257 14.8128 17.257 14.8128 17.257C14.8128 17.257 14.8128 17.257 14.8128 17.257V17.257C14.8128 17.257 14.8128 17.257 14.0823 17.0872C13.3517 16.9175 13.3517 16.9175 13.3517 16.9175C13.3517 16.9175 13.3517 16.9175 13.3517 16.9175C13.3517 16.9175 13.3517 16.9175 13.3517 16.9176C13.3517 16.9176 13.3517 16.9176 13.3517 16.9176C13.3517 16.9177 13.3517 16.9177 13.3516 16.9178C13.3516 16.918 13.3515 16.9183 13.3514 16.9187C13.3513 16.9194 13.351 16.9204 13.3507 16.9218C13.3501 16.9245 13.3492 16.9284 13.348 16.9334C13.3457 16.9434 13.3424 16.9576 13.3385 16.9747C13.3307 17.0087 13.3202 17.0545 13.3097 17.1008L14.7726 17.4323ZM16.1182 12.3368C16.0516 12.3955 16.0138 12.4287 15.977 12.4619L16.9809 13.5764C17.0098 13.5504 17.04 13.5238 17.1092 13.4629L16.1182 12.3368ZM8.03835 19.7702C7.40696 19.3898 6.96744 19.1245 6.64293 18.8962C6.32139 18.6701 6.17087 18.519 6.08417 18.3905L4.84069 19.2294C5.0768 19.5794 5.39871 19.855 5.7799 20.1231C6.15814 20.3892 6.65167 20.686 7.26434 21.055L8.03835 19.7702ZM6.42176 13.7025C5.9085 14.2072 5.49546 14.6127 5.18769 14.9609C4.8776 15.3117 4.62759 15.6548 4.47735 16.0492L5.87912 16.5831C5.93538 16.4354 6.04909 16.2513 6.31158 15.9543C6.57638 15.6547 6.94479 15.2919 7.47343 14.7721L6.42176 13.7025ZM6.08417 18.3905C5.7293 17.8645 5.65061 17.1831 5.87912 16.5831L4.47735 16.0492C4.07619 17.1025 4.21119 18.2963 4.84069 19.2294L6.08417 18.3905ZM7.92868 21.4552C8.54123 21.8242 9.0345 22.1219 9.44478 22.3308C9.85683 22.5406 10.2516 22.6968 10.6702 22.7361L10.8105 21.2427C10.6706 21.2295 10.475 21.1721 10.1254 20.9941C9.774 20.8152 9.33421 20.5508 8.70269 20.1704L7.92868 21.4552ZM13.0617 18.1953C12.8947 18.9324 12.7774 19.4483 12.6606 19.839C12.5444 20.228 12.4476 20.4235 12.3545 20.5464L13.5501 21.4522C13.8038 21.1174 13.9627 20.7206 14.0979 20.2684C14.2325 19.8177 14.3622 19.2434 14.5246 18.5268L13.0617 18.1953ZM10.6702 22.7361C11.7877 22.841 12.8691 22.351 13.5501 21.4522L12.3545 20.5464C11.9781 21.0432 11.3963 21.2977 10.8105 21.2427L10.6702 22.7361ZM17.9525 3.54109C18.0119 3.5769 18.0573 3.60423 18.0958 3.62828C18.1344 3.65232 18.1571 3.66753 18.1711 3.67756C18.1995 3.69793 18.1593 3.67466 18.1185 3.61073L19.3826 2.80329C19.2787 2.64065 19.149 2.53309 19.0457 2.45889C18.9496 2.38994 18.8321 2.31983 18.7265 2.25621L17.9525 3.54109ZM19.2829 4.33437C19.3426 4.22649 19.4093 4.10706 19.4581 3.99933C19.5106 3.8834 19.5692 3.72542 19.5779 3.53263L18.0794 3.46486C18.0829 3.38908 18.106 3.34885 18.0916 3.38067C18.0845 3.39635 18.0724 3.4209 18.051 3.46099C18.0296 3.50107 18.004 3.5474 17.9704 3.60813L19.2829 4.33437ZM18.1185 3.61073C18.0907 3.56729 18.0771 3.51635 18.0794 3.46486L19.5779 3.53263C19.5895 3.2752 19.5213 3.02047 19.3826 2.80329L18.1185 3.61073ZM17.1022 3.08942C17.1381 3.02458 17.1656 2.97485 17.1899 2.93254C17.2143 2.8902 17.2299 2.86483 17.2405 2.84899C17.2624 2.81616 17.2395 2.8601 17.1718 2.90473L16.3459 1.65261C16.1756 1.76494 16.0664 1.90606 15.9925 2.01679C15.9234 2.12046 15.8537 2.24756 15.7898 2.36318L17.1022 3.08942ZM17.9458 1.78592C17.8326 1.71774 17.7088 1.64244 17.5971 1.58718C17.4778 1.52816 17.3127 1.4605 17.109 1.44829L17.0192 2.9456C16.9383 2.94074 16.8965 2.91412 16.9319 2.93161C16.949 2.94006 16.9752 2.9542 17.0174 2.97873C17.0596 3.00324 17.1083 3.03256 17.1718 3.07079L17.9458 1.78592ZM17.1718 2.90473C17.1267 2.9345 17.0732 2.94883 17.0192 2.9456L17.109 1.44829C16.8392 1.43211 16.5715 1.50379 16.3459 1.65261L17.1718 2.90473ZM10.5812 10.1116C10.6593 9.83693 10.7245 9.55752 10.7763 9.27434L9.30077 9.00451C9.25765 9.24026 9.2034 9.47273 9.13841 9.70112L10.5812 10.1116ZM14.8118 17.261C14.9714 16.5914 15.2215 15.9543 15.5512 15.3677L14.2435 14.6328C13.8454 15.3412 13.5444 16.1086 13.3527 16.9134L14.8118 17.261ZM15.5512 15.3677C15.929 14.6954 16.411 14.0897 16.9809 13.5764L15.977 12.4619C15.2836 13.0864 14.6997 13.8211 14.2435 14.6328L15.5512 15.3677Z" fill="#fff"/>
<path d="M17.6978 9.26736L16.8956 9.53474C16.0254 9.82483 15.0674 9.65397 14.3511 9.08091C13.5274 8.42196 12.3957 8.30207 11.4522 8.77381L10.7261 9.1369" stroke="#fff" stroke-width="1.5" stroke-linecap="square"/>
</svg>