<?xml version="1.0" encoding="iso-8859-1"?>
<!-- Uploaded to: SVG Repo, www.svgrepo.com, Generator: SVG Repo Mixer Tools -->
<svg fill="#ffffff" version="1.1" id="Layer_1" xmlns="http://www.w3.org/2000/svg" xmlns:xlink="http://www.w3.org/1999/xlink" 
	 viewBox="0 0 512.006 512.006" xml:space="preserve" width="50px" height="50px">
<g>
	<g>
		<g>
			<path d="M384.006,309.336v-85.333c0-11.776,9.536-21.333,21.333-21.333h87.851l-26.091-52.203
				c-3.627-7.232-11.008-11.797-19.093-11.797h-128c-11.797,0-21.333,9.557-21.333,21.333v128H264.71l30.485-170.667h3.477h21.333
				c11.797,0,21.333-9.557,21.333-21.333s-9.536-21.333-21.333-21.333h-9.92l-36.331-54.507c-3.968-5.931-10.624-9.493-17.749-9.493
				h-64c-5.675,0-11.093,2.24-15.083,6.251L158.022,35.8l-30.016,15.019L94.875,34.243c-5.781-2.88-12.587-2.987-18.453-0.299
				c-5.867,2.709-10.197,7.936-11.776,14.208l-17.344,69.397c-7.936,0.555-14.976,5.333-18.133,12.715l-27.435,64
				c-1.664,3.883-2.155,8.149-1.365,12.309l15.339,82.56c-8.981,2.517-15.701,10.432-15.701,20.203v106.667
				c0,11.776,9.536,21.333,21.333,21.333h21.333c0,35.285,28.715,64,64,64s64-28.715,64-64h170.667c0,35.285,28.715,64,64,64
				c35.285,0,64-28.715,64-64h21.333c11.797,0,21.333-9.557,21.333-21.333v-85.333H405.339
				C393.542,330.669,384.006,321.112,384.006,309.336z M106.672,458.669c-11.776,0-21.333-9.579-21.333-21.333
				c0-4.693,1.835-8.832,4.416-12.352c8.171-10.901,25.664-10.901,33.835,0c2.581,3.52,4.416,7.659,4.416,12.352
				C128.006,449.091,118.448,458.669,106.672,458.669z M221.382,288.003H58.886l-15.403-82.88l19.349-45.12h1.173h128
				c5.675,0,11.093-2.24,15.083-6.251l36.416-36.416h8.363L221.382,288.003z M422.256,424.984c2.581,3.52,4.416,7.659,4.416,12.352
				c0,11.755-9.557,21.333-21.333,21.333s-21.333-9.579-21.333-21.333c0-4.693,1.835-8.832,4.416-12.352
				C396.592,414.083,414.086,414.083,422.256,424.984z"/>
			<rect x="426.672" y="245.336" width="85.333" height="42.667"/>
		</g>
	</g>
</g>
</svg>