<?xml version="1.0" ?>
<!-- Uploaded to: SVG Repo, www.svgrepo.com, Generator: SVG Repo Mixer Tools -->
<svg fill="#ffffff" width="50px" height="50px" viewBox="0 0 50 50" xmlns="http://www.w3.org/2000/svg">
<g id="Solid">
<path d="M45.23914,32.39269,39.4508,35.85741a1.01516,1.01516,0,0,1-1.37536-.34277.99861.99861,0,0,1,.3436-1.37207l.292-.1748L37.0985,31.55468a1.00164,1.00164,0,0,1,1.66805-1.10938l1.66553,2.49231,4.41465-2.64245L43.566,23.45A3.00636,3.00636,0,0,0,40.60889,21H25.23224a2.99838,2.99838,0,0,0-2.95707,2.45l-2.3893,12.77008L24.389,35.09716l2.81091-2.8042A1.00109,1.00109,0,1,1,28.61733,33.707l-3.00717,3a.99942.99942,0,0,1-.46547.26319l-5.66347,1.41247L18.12526,45.63A2.00308,2.00308,0,0,0,20.09,48h8.5905A2.00353,2.00353,0,0,0,30.595,46.62l2.32556-7.11,2.32555,7.11A2.00355,2.00355,0,0,0,37.16066,48h8.59051a2.00308,2.00308,0,0,0,1.96471-2.37ZM37.93253,23h2.67636a1.00837,1.00837,0,0,1,.99236.82l.411,2.18H37.93253ZM27.90861,26H23.82887l.411-2.18a1.00838,1.00838,0,0,1,.99236-.82h2.67637Zm.77186,20H20.09l.37088-2H29.342Zm7.24727-20H29.91339V23h6.01435Zm1.22289,20-.65152-2h8.88118l.37088,2ZM18.26212,34H11.87035a2.00438,2.00438,0,0,1-2.00479-2V22.61834l3.3608-1.67645,1.75688,3.50537a1.002,1.002,0,0,0,1.79334-.89453c-.00275-.00556-1.22276-2.43976-1.75687-3.50538l1.41426-.7055.55405,1.10541a1.00205,1.00205,0,0,0,1.79335-.89453c-.00123-.00245-.24179-.48236-.55406-1.10547l1.10811-.55274a1.00059,1.00059,0,1,0-.89667-1.78906l-1.10811.55273c-.31313-.62469-.55406-1.10546-.55406-1.10546a1.002,1.002,0,0,0-1.79334.89453l.55406,1.10553L9.86556,20.382V17.33544l-1.80949.5293a2.01386,2.01386,0,0,1-2.16532-.71582L2.654,12.86376a1.99689,1.99689,0,0,1,.40135-2.80615L13.60642,2.19872a1.00412,1.00412,0,0,1,1.04595-.09424,11.11016,11.11016,0,0,0,10.47421,0,1.00643,1.00643,0,0,1,1.04644.09424l2.6623,1.9831-2.3882,3.971-.095-.04736a.99631.99631,0,0,0-.93466,1.75946l-.37315.62042a1.00291,1.00291,0,0,0,.85844,1.50885,1.01744,1.01744,0,0,0,.86051-.47955c.00092-.00153.17167-.2854.44772-.74445l.24925.12433A1.0006,1.0006,0,1,0,28.357,9.10546l-.11135-.05554C28.953,7.87371,29.78375,6.49224,30.45,5.38451l6.27364,4.6731a1.99921,1.99921,0,0,1,.40134,2.80615l-3.23721,4.28565a2.01225,2.01225,0,0,1-2.16532.71533l-1.809-.5293V19H25.2323a5.00056,5.00056,0,0,0-4.92777,4.0835Z"/>
</g>
</svg>